<svg width="48" height="48" xmlns="http://www.w3.org/2000/svg" fill="none">

 <g>
  <title>Layer 1</title>
  <path id="svg_1" fill="black" d="m24,14c0.5523,0 1,0.44772 1,1l0,1c0,0.55228 -0.4477,1 -1,1c-0.5523,0 -1,-0.44772 -1,-1l0,-1c0,-0.55228 0.4477,-1 1,-1zm7.0711,2.92893c0.3905,0.39052 0.3905,1.02368 0,1.41421l-0.7071,0.70711c-0.3905,0.39052 -1.0237,0.39052 -1.4142,0c-0.3905,-0.39053 -0.3905,-1.02369 0,-1.41422l0.7071,-0.7071c0.3905,-0.39053 1.0237,-0.39053 1.4142,0zm-14.14217,0c0.39052,-0.39053 1.02369,-0.39053 1.41421,0l0.70711,0.7071c0.39052,0.39053 0.39052,1.02369 0,1.41422c-0.39053,0.39052 -1.02369,0.39052 -1.41422,0l-0.7071,-0.70711c-0.39053,-0.39052 -0.39053,-1.02369 0,-1.41421zm7.07107,3.07107c-2.20914,0 -4,1.79086 -4,4c0,2.2091 1.79086,4 4,4c2.2091,0 4,-1.7909 4,-4c0,-2.20914 -1.7909,-4 -4,-4zm-6,4c0,-3.31371 2.68629,-6 6,-6c3.3137,0 6,2.68629 6,6c0,3.3137 -2.6863,6 -6,6c-3.31371,0 -6,-2.6863 -6,-6zm-4,0c0,-0.5523 0.44772,-1 1,-1l1,0c0.55228,0 1,0.4477 1,1c0,0.5523 -0.44772,1 -1,1l-1,0c-0.55228,0 -1,-0.4477 -1,-1zm17,0c0,-0.5523 0.4477,-1 1,-1l1,0c0.5523,0 1,0.4477 1,1c0,0.5523 -0.4477,1 -1,1l-1,0c-0.5523,0 -1,-0.4477 -1,-1zm-13.36397,4.9497c0.39053,-0.3905 1.02369,-0.3905 1.41422,0c0.39052,0.3906 0.39052,1.0237 0,1.4143l-0.70711,0.7071c-0.39052,0.3905 -1.02369,0.3905 -1.41421,0c-0.39053,-0.3906 -0.39053,-1.0237 0,-1.4143l0.7071,-0.7071zm11.31377,1.4143c-0.3905,-0.3906 -0.3905,-1.0237 0,-1.4143c0.3905,-0.3905 1.0237,-0.3905 1.4142,0l0.7071,0.7071c0.3905,0.3906 0.3905,1.0237 0,1.4143c-0.3905,0.3905 -1.0237,0.3905 -1.4142,0l-0.7071,-0.7071zm-4.9498,0.636c0.5523,0 1,0.4477 1,1l0,1c0,0.5523 -0.4477,1 -1,1c-0.5523,0 -1,-0.4477 -1,-1l0,-1c0,-0.5523 0.4477,-1 1,-1z"/>
 </g>
</svg>